# xmcd CD database file
#
# Track frame offsets:
#	150
#	20734
#	39113
#	66461
#	87790
#	102043
#	123309
#	148893
#	166688
#	189105
#
# Disc length: 3048 seconds
#
# Revision: 0
# Processed by: cddbd v1.5.1PL0 Copyright (c) Steve Scherf et al.
# Submitted via: CDex 1.51
#
DISCID=7a0be60a
DTITLE=Malice In Wonderland - Malice In Wonderland
DYEAR=2005
DGENRE=Gothic Rock
TTITLE0=Lucifers Town
TTITLE1=Devildance
TTITLE2=My Heart (Belongs To You)
TTITLE3=Perfect Drug
TTITLE4=In The End
TTITLE5=Heartache Boulevard
TTITLE6=Red Rose Suicide
TTITLE7=Dancing With You
TTITLE8=Nightclub, Sin and Decadence
TTITLE9=I Love To Sin
EXTD=YEAR: 2005
EXTT0=
EXTT1=
EXTT2=
EXTT3=
EXTT4=
EXTT5=
EXTT6=
EXTT7=
EXTT8=
EXTT9=
PLAYORDER=
